<svg id="Capa_1" data-name="Capa 1" xmlns="http://www.w3.org/2000/svg" viewBox="0 0 108.62 85.66"><defs><style>.cls-1{fill:#510fa1;}</style></defs><title>organic-shape-003</title><path class="cls-1" d="M108.44,46.17c-3.67,13.77-12.62,26.52-26.76,32.54-2.51,1.35-5.06,2.6-7.67,3.74a44.9,44.9,0,0,1-9.66,2.65C48.13,87.65,31.6,81.22,19.17,70.17A59.78,59.78,0,0,1,0,31.9,29.16,29.16,0,0,1,5.33,13.74a35,35,0,0,1,6.36-6.86c34.62-23.33,88.78,19.27,94.88,29.68C109.21,40.44,108.6,42.85,108.44,46.17Z" transform="translate(0 0)"/></svg>